<svg width="96" height="96" viewBox="0 0 96 96" fill="none" xmlns="http://www.w3.org/2000/svg">
    <!-- фон круга можно включить если надо -->
    <!-- <circle cx="48" cy="48" r="44" fill="#0F172A"/> -->

    <!-- контур глобуса -->
    <circle cx="48" cy="48" r="26" stroke="#0F172A" stroke-width="2.6"/>

    <!-- вертикальный меридиан -->
    <path d="M48 22C42 28 39.4 37.4 39.4 48C39.4 58.6 42 68 48 74C54 68 56.6 58.6 56.6 48C56.6 37.4 54 28 48 22Z" stroke="#0F172A" stroke-width="2.4" stroke-linecap="round"/>

    <!-- горизонтальный меридиан -->
    <path d="M26 48H70" stroke="#0F172A" stroke-width="2.2" stroke-linecap="round"/>

    <!-- траектория / маршрут -->
    <path d="M35 58C40 54 45 53 51 54.5C55 55.5 58 55 61 53" stroke="#0F172A" stroke-width="2" stroke-linecap="round" stroke-linejoin="round"/>

    <!-- пин (точка назначения) -->
    <g transform="translate(58 28)">
        <path d="M10 7.2C10 3.22355 7.08985 0.5 4.5 0.5C1.91015 0.5 -1.19583e-07 3.22355 0 7.2C0 10.6 2.7 14.15 4.5 16C6.3 14.15 10 10.6 10 7.2Z" fill="#0F172A"/>
        <circle cx="4.5" cy="6.7" r="1.6" fill="white"/>
    </g>
</svg>
